<svg width="97" height="93" viewBox="0 0 97 93" fill="none" xmlns="http://www.w3.org/2000/svg">
<circle cx="48.5" cy="46.5" r="46.5" fill="white"/>
<path d="M59.4613 28.0804C59.2296 28.1295 58.7115 28.3079 58.3031 28.4678C56.6328 29.1443 54.7127 29.6731 52.8413 29.9806C50.2933 30.3926 48.0318 30.491 43.1796 30.3926C37.9982 30.2881 36.4255 30.3988 34.6456 30.9707C32.8413 31.5549 31.7014 32.5512 30.4639 34.6237C28.5864 37.7785 26.8735 43.5899 25.9287 49.998C25.8434 50.5883 25.758 51.1356 25.7397 51.2094C25.7215 51.314 25.5142 51.4493 24.8681 51.7814C21.2716 53.6201 17.0168 57.3838 14.0908 61.3073C12.7985 63.0354 12 64.6158 12 65.4337C12 65.9196 12.3718 66.2947 12.8534 66.2947C13.3776 66.2947 13.8104 66.1225 14.3286 65.7228C19.6014 61.6394 31.4149 57.3346 47.1113 53.7739C60.8389 50.656 76.1574 48.6389 83.2163 49.0078C84.7768 49.0939 84.7219 49.1062 84.917 48.6635C85.1486 48.1346 84.9048 47.6918 84.0697 47.126C82.9115 46.3512 80.7658 45.5394 76.8584 44.414C75.1212 43.9097 71.9453 43.0488 71.8356 43.0488C71.7807 43.0488 71.7441 42.895 71.7136 42.5691C71.5491 40.5643 69.8849 36.6223 68.0014 33.7627C67.0687 32.3483 66.3372 31.4504 65.2949 30.4418C64.1062 29.2857 62.9358 28.5416 61.7593 28.1972C61.0705 27.9881 60.0769 27.9389 59.4613 28.0804Z" fill="black"/>
</svg>
